# AST/ASF file generated using VICON BodyLanguage
# -----------------------------------------------
:version 1.10
:name VICON
:units
  mass 1.0
  length 0.45
  angle deg
:documentation
   .ast/.asf automatically generated from VICON data using
   VICON BodyBuilder and BodyLanguage model FoxedUp or BRILLIANT.MOD
:root
   order TX TY TZ RX RY RZ
   axis XYZ
   position 0 0 0  
   orientation 0 0 0 
:bonedata
  begin
     id 1 
     name lhipjoint
     direction 0.584852 -0.759097 0.285867 
     length 2.43633 
     axis 0 0 0  XYZ
  end
  begin
     id 2 
     name lfemur
     direction 0.34202 -0.939693 0  
     length 7.14704  
     axis 0 0 20  XYZ
    dof rx ry rz
    limits (-160.0 20.0)
           (-70.0 70.0)
           (-60.0 70.0)
  end
  begin
     id 3 
     name ltibia
     direction 0.342022 -0.939692 0   
     length 7.68483   
     axis 0 0 20   XYZ
    dof rx
    limits (-10.0 170.0)
  end
  begin
     id 4 
     name lfoot
     direction 0.0999605 -0.274639 0.956337   
     length 2.40452   
     axis -90 7.62852e-016 20   XYZ
    dof rx rz
    limits (-45.0 90.0)
           (-70.0 20.0)
  end
  begin
     id 5 
     name ltoes
     direction 1.53468e-011 -4.21881e-011 1   
     length 1.19837   
     axis -90 7.62852e-016 20   XYZ
    dof rx
    limits (-90.0 20.0)
  end
  begin
     id 6 
     name rhipjoint
     direction -0.569886 -0.769002 0.289597   
     length 2.40495  
     axis 0 0 0  XYZ 
  end
  begin
     id 7 
     name rfemur
     direction -0.34202 -0.939693 0   
     length 7.45086   
     axis 0 0 -20   XYZ
    dof rx ry rz
    limits (-160.0 20.0)
           (-70.0 70.0)
           (-70.0 60.0)
  end
  begin
     id 8 
     name rtibia
     direction -0.34202 -0.939693 0   
     length 7.76831   
     axis 0 0 -20   XYZ
    dof rx
    limits (-10.0 170.0)
 end
 begin
     id 9 
     name rfoot
     direction -0.0798572 -0.219406 0.97236   
     length 2.35911  
     axis -90 -7.62852e-016 -20   XYZ
    dof rx rz
    limits (-45.0 90.0)
           (-20.0 70.0)
  end
  begin
     id 10 
     name rtoes
     direction -1.53469e-011 -4.21728e-011 1   
     length 1.18261   
     axis -90 -7.62852e-016 -20   XYZ
    dof rx
    limits (-90.0 20.0)
  end
  begin
     id 11 
     name lowerback
     direction 0.0242088 0.999437 0.0232389   
     length 2.1561   
     axis 0 0 0   XYZ
    dof rx ry rz
    limits (-20.0 45.0)
           (-30.0 30.0)
           (-30.0 30.0)
  end
  begin
     id 12 
     name upperback
     direction -0.0356893 0.999013 -0.0264323   
     length 2.14431   
     axis 0 0 0   XYZ
    dof rx ry rz
    limits (-20.0 45.0)
           (-30.0 30.0)
           (-30.0 30.0)
  end
  begin
     id 13 
     name thorax
     direction -0.0472163 0.998194 -0.0371284   
     length 2.16169   
     axis 0 0 0   XYZ
    dof rx ry rz
    limits (-20.0 45.0)
           (-30.0 30.0)
           (-30.0 30.0)
  end
  begin
     id 14 
     name lowerneck
     direction 0.00863244 0.999921 0.00911972   
     length 1.58651   
     axis 0 0 0   XYZ
    dof rx ry rz
    limits (-20.0 45.0)
           (-30.0 30.0)
           (-30.0 30.0)
  end
  begin
     id 15 
     name upperneck
     direction 0.149523 0.979068 -0.138086   
     length 1.57486   
     axis 0 0 0   XYZ
    dof rx ry rz
    limits (-20.0 45.0)
           (-30.0 30.0)
           (-30.0 30.0)
  end
  begin
     id 16
     name head
     direction 0.0445219 0.997708 -0.0509576  
     length 1.6019  
     axis 0 0 0   XYZ
    dof rx ry rz
    limits (-20.0 45.0)
           (-30.0 30.0)
           (-30.0 30.0)
  end
  begin
     id 17 
     name lclavicle
     direction 0.911271 0.381667 -0.154644  
     length 3.80848  
     axis 0 0 0   XYZ
    dof ry rz
    limits (-20.0 10.0)
           (0.0 20.0)
  end
  begin
     id 18 
     name lhumerus
     direction 1 -4.49003e-011 2.1308e-027   
     length 5.19069   
     axis 180 -30 -90   XYZ
    dof rx ry rz
    limits (-60.0 90.0)
           (-90.0 90.0)
           (-90.0 90.0)
  end
  begin
     id 19
     name lradius
     direction 1 -4.48914e-011 4.01554e-027   
     length 3.30016   
     axis 180 -30 -90   XYZ
    dof rx
    limits (-10.0 170.0)
  end
  begin
     id 20
     name lwrist
     direction 1 -4.49003e-011 1.1934e-026   
     length 1.65008   
     axis -8.46377e-015 90 90   XYZ
    dof ry
    limits (-180.0 0.0)
 end
  begin
     id 21 
     name lhand
     direction 1 -4.49034e-011 2.38659e-026   
     length 0.707698   
     axis -1.52313e-014 90 90   XYZ
    dof rx rz
    limits (-90.0 90.0)
           (-45.0 45.0)
  end
  begin
     id 22 
     name lfingers
     direction 1 -4.48691e-011 4.77775e-026   
     length 0.570564   
     axis -3.04623e-014 90 90   XYZ
    dof rx
    limits (0.0 90.0)
  end
  begin
     id 23
     name lthumb
     direction 0.707107 -6.34832e-011 0.707107   
     length 0.819219   
     axis -90 45 -1.62303e-014   XYZ
    dof rx rz
    limits (-45.0 45.0)
           (-45.0 45.0)
  end
  begin
     id 24 
     name rclavicle
     direction -0.815579 0.573708 -0.0754329   
     length 3.54371  
     axis 0 0 0   XYZ 
    dof ry rz
    limits (-10.0 20.0)
           (-20.0 0.0)
  end
  begin
     id 25 
     name rhumerus
     direction -1 -4.48956e-011 3.05351e-028  
     length 5.23924   
     axis 180 30 90   XYZ
    dof rx ry rz
    limits (-90.0 60.0)
           (-90.0 90.0)
           (-90.0 90.0)
  end
  begin
     id 26 
     name rradius
     direction -1 -4.49013e-011 3.53849e-027   
     length 3.32953   
     axis 180 30 90   XYZ
    dof rx
    limits (-10.0 170.0)
  end
  begin
     id 27 
     name rwrist
     direction -1 -4.48901e-011 1.19374e-026   
     length 1.66477   
     axis -8.46377e-015 -90 -90   XYZ
    dof ry
    limits (-180.0 0.0)
  end
  begin
     id 28
     name rhand
     direction -1 -4.48877e-011 2.38764e-026   
     length 0.607414   
     axis -1.52313e-014 -90 -90   XYZ
    dof rx rz
    limits (-90.0 90.0)
           (-45.0 45.0)
  end
  begin
     id 29
     name rfingers
     direction -1 -4.48882e-011 4.77521e-026   
     length 0.489712   
     axis -3.04623e-014 -90 -90   XYZ
    dof rx
    limits (0.0 90.0)
  end
  begin
     id 30
     name rthumb
     direction -0.707107 -6.34974e-011 0.707107   
     length 0.703132   
     axis -90 -45 1.62303e-014   XYZ
    dof rx rz
    limits (-45.0 45.0)
           (-45.0 45.0)
  end
:hierarchy
  begin
    root lhipjoint rhipjoint lowerback
    lhipjoint lfemur
    lfemur ltibia
    ltibia lfoot
    lfoot ltoes
    rhipjoint rfemur
    rfemur rtibia
    rtibia rfoot
    rfoot rtoes
    lowerback upperback
    upperback thorax
    thorax lowerneck lclavicle rclavicle
    lowerneck upperneck
    upperneck head
    lclavicle lhumerus
    lhumerus lradius
    lradius lwrist
    lwrist lhand lthumb
    lhand lfingers
    rclavicle rhumerus
    rhumerus rradius
    rradius rwrist
    rwrist rhand rthumb
    rhand rfingers
  end

#!OML:ASF E:\VariousWalksJay\Project 1\Capture day 1\Session 1\Actor2.ASF
:FULLY-SPECIFIED
:DEGREES
191
root 26.112 16.6567 48.0426 176.642 -50.3553 -174.865
lowerback -4.06388 0.114772 6.15165
upperback 5.45079 -0.358241 -1.39701
thorax 8.00933 0.1894 -4.98556
lowerneck -9.45311 0.362101 1.56582
upperneck 4.5701 -0.464158 7.92582
head 3.19581 0.0382654 2.31916
rclavicle -1.89839e-014 8.34896e-015
rhumerus -31.3037 -0.205167 -85.6121
rradius 33.5814
rwrist 0.104844
rhand -10.9992 -4.15605
rfingers 7.12502
rthumb 15.0213 -33.5912
lclavicle -1.89839e-014 8.34896e-015
lhumerus -24.7614 -6.08639 80.7938
lradius 25.729
lwrist 6.54991
lhand -5.66434 -10.439
lfingers 7.12502
lthumb 20.155 18.5355
rfemur -11.3719 -3.46825 22.9626
rtibia 32.342
rfoot -17.9479 -16.0356
rtoes -15.4128
lfemur -9.49448 5.94 -16.5219
ltibia 27.4983
lfoot -16.76 6.71817
ltoes -14.5763
192
root 26.1145 16.6566 48.0426 176.615 -50.4017 -174.805
lowerback -4.35368 0.0822686 5.86888
upperback 5.67847 -0.430494 -1.14557
thorax 8.4162 0.143495 -4.57164
lowerneck -9.72278 0.15919 1.05096
upperneck 4.38255 -0.669529 8.0379
head 3.19681 -0.0667557 2.44
rclavicle 1.93815e-014 -2.82274e-014
rhumerus -30.9005 0.132507 -85.3062
rradius 33.5327
rwrist 0.00374719
rhand -9.72374 -5.09239
rfingers 7.12502
rthumb 16.2497 -34.4314
lclavicle 1.93815e-014 -2.82274e-014
lhumerus -24.3896 -5.6621 81.0637
lradius 25.6043
lwrist 6.34259
lhand -5.66243 -10.311
lfingers 7.12502
lthumb 20.1568 18.6633
rfemur -11.3726 -3.45594 23.0175
rtibia 32.3041
rfoot -18.0474 -16.037
rtoes -14.9127
lfemur -9.57578 5.86892 -16.5405
ltibia 27.5137
lfoot -16.6402 7.02984
ltoes -14.7896
193
root 26.1151 16.6584 48.0422 176.629 -50.4167 -174.8
lowerback -4.3917 0.0324707 5.77785
upperback 5.73112 -0.501498 -1.07314
thorax 8.4867 0.102763 -4.45208
lowerneck -9.94891 -0.0152885 0.733384
upperneck 4.43532 -0.888524 8.22491
head 3.27444 -0.167802 2.55387
rclavicle -2.77305e-014 -1.59028e-014
rhumerus -30.7899 0.416685 -85.2622
rradius 33.4867
rwrist -0.0126246
rhand -7.88097 -6.13934
rfingers 7.12502
rthumb 18.0234 -35.3243
lclavicle -2.77305e-014 -1.59028e-014
lhumerus -24.3449 -5.49622 81.1185
lradius 25.5817
lwrist 6.32072
lhand -5.58326 -10.1937
lfingers 7.12502
lthumb 20.2329 18.7725
rfemur -11.3732 -3.40489 23.0258
rtibia 32.2674
rfoot -18.1797 -16.0186
rtoes -14.2211
lfemur -9.57989 5.9435 -16.4924
ltibia 27.5223
lfoot -16.6946 6.75247
ltoes -14.7103
194
root 26.1165 16.6598 48.0442 176.652 -50.4011 -174.775
lowerback -4.2637 -0.0271318 5.87404
upperback 5.65417 -0.573068 -1.12302
thorax 8.31862 0.0691774 -4.56474
lowerneck -10.0013 -0.133211 0.434785
upperneck 4.51119 -1.05172 8.60921
head 3.329 -0.239205 2.73481
rclavicle -5.38706e-014 2.54444e-014
rhumerus -30.8901 0.59952 -85.3985
rradius 33.4809
rwrist 0.0665328
rhand -7.73287 -6.1648
rfingers 7.12502
rthumb 18.1659 -35.3365
lclavicle -5.38706e-014 2.54444e-014
lhumerus -24.4978 -5.4944 81.0176
lradius 25.5876
lwrist 6.38583
lhand -5.60639 -10.1153
lfingers 7.12502
lthumb 20.2107 18.8533
rfemur -11.4226 -3.35456 23.0454
rtibia 32.2505
rfoot -18.0676 -16.1028
rtoes -14.7522
lfemur -9.63792 5.9642 -16.4799
ltibia 27.5235
lfoot -16.7516 6.73616
ltoes -14.5556
195
root 26.1175 16.6611 48.0464 176.653 -50.3649 -174.753
lowerback -4.25481 -0.0717181 5.85045
upperback 5.68359 -0.636966 -1.07139
thorax 8.33767 0.0349882 -4.50365
lowerneck -10.369 -0.36536 0.0721267
upperneck 4.80093 -1.35828 8.76949
head 3.52534 -0.373743 2.85003
rclavicle -3.25013e-014 2.10712e-014
rhumerus -30.7758 0.897066 -85.3916
rradius 33.4156
rwrist 0.042812
rhand -7.35075 -6.39755
rfingers 7.12502
rthumb 18.5335 -35.5347
lclavicle -3.25013e-014 2.10712e-014
lhumerus -24.4626 -5.34182 81.0452
lradius 25.5288
lwrist 6.34498
lhand -5.52384 -10.3194
lfingers 7.12502
lthumb 20.29 18.6407
rfemur -11.4458 -3.22262 23.0683
rtibia 32.2293
rfoot -17.164 -16.7713
rtoes -19.2968
lfemur -9.62184 5.86706 -16.4659
ltibia 27.516
lfoot -16.8468 6.74885
ltoes -14.4167
196
root 26.1193 16.6599 48.0489 176.68 -50.3773 -174.757
lowerback -4.10499 0.33405 6.18364
upperback 5.01492 -0.0265705 -1.52944
thorax 7.60495 0.342537 -5.10438
lowerneck -8.27597 -0.909791 1.15474
upperneck 4.62802 -2.15339 8.73929
head 3.07945 -0.809565 2.57076
rclavicle 3.57812e-015 -5.56597e-015
rhumerus -32.467 -0.594249 -85.6749
rradius 33.5989
rwrist 0.32973
rhand -7.41142 -6.35472
rfingers 7.12502
rthumb 18.4751 -35.4974
lclavicle 3.57812e-015 -5.56597e-015
lhumerus -25.6791 -7.47485 80.9341
lradius 25.6864
lwrist 6.75767
lhand -5.4608 -10.1755
lfingers 7.12502
lthumb 20.3506 18.7782
rfemur -11.4828 -3.34475 23.0519
rtibia 32.2254
rfoot -17.1305 -16.6483
rtoes -19.2646
lfemur -9.67579 5.82894 -16.4827
ltibia 27.52
lfoot -16.8059 6.79246
ltoes -14.415
